<svg id="visual" viewBox="0 0 960 300" width="960" height="300" xmlns="http://www.w3.org/2000/svg" xmlns:xlink="http://www.w3.org/1999/xlink" version="1.1"><rect x="0" y="0" width="960" height="300" fill="#202731"></rect><path d="M0 112L9.3 108.7C18.7 105.3 37.3 98.7 56.2 103.2C75 107.7 94 123.3 112.8 120.5C131.7 117.7 150.3 96.3 169.2 94.8C188 93.3 207 111.7 225.8 118.8C244.7 126 263.3 122 282.2 119.2C301 116.3 320 114.7 338.8 108.3C357.7 102 376.3 91 395.2 88.5C414 86 433 92 451.8 102C470.7 112 489.3 126 508.2 132.8C527 139.7 546 139.3 564.8 132.5C583.7 125.7 602.3 112.3 621.2 105.2C640 98 659 97 677.8 90.8C696.7 84.7 715.3 73.3 734.2 69.2C753 65 772 68 790.8 71C809.7 74 828.3 77 847.2 86.7C866 96.3 885 112.7 903.8 115.8C922.7 119 941.3 109 950.7 104L960 99L960 0L950.7 0C941.3 0 922.7 0 903.8 0C885 0 866 0 847.2 0C828.3 0 809.7 0 790.8 0C772 0 753 0 734.2 0C715.3 0 696.7 0 677.8 0C659 0 640 0 621.2 0C602.3 0 583.7 0 564.8 0C546 0 527 0 508.2 0C489.3 0 470.7 0 451.8 0C433 0 414 0 395.2 0C376.3 0 357.7 0 338.8 0C320 0 301 0 282.2 0C263.3 0 244.7 0 225.8 0C207 0 188 0 169.2 0C150.3 0 131.7 0 112.8 0C94 0 75 0 56.2 0C37.3 0 18.7 0 9.3 0L0 0Z" fill="#dd3f31"></path><path d="M0 109L9.3 104.7C18.7 100.3 37.3 91.7 56.2 86.5C75 81.3 94 79.7 112.8 83.3C131.7 87 150.3 96 169.2 93.8C188 91.7 207 78.3 225.8 78.2C244.7 78 263.3 91 282.2 96.8C301 102.7 320 101.3 338.8 103C357.7 104.7 376.3 109.3 395.2 99.7C414 90 433 66 451.8 55.3C470.7 44.7 489.3 47.3 508.2 58.8C527 70.3 546 90.7 564.8 101.8C583.7 113 602.3 115 621.2 103.8C640 92.7 659 68.3 677.8 56.5C696.7 44.7 715.3 45.3 734.2 56.5C753 67.7 772 89.3 790.8 90.7C809.7 92 828.3 73 847.2 72.2C866 71.3 885 88.7 903.8 92.2C922.7 95.7 941.3 85.3 950.7 80.2L960 75L960 0L950.7 0C941.3 0 922.7 0 903.8 0C885 0 866 0 847.2 0C828.3 0 809.7 0 790.8 0C772 0 753 0 734.2 0C715.3 0 696.7 0 677.8 0C659 0 640 0 621.2 0C602.3 0 583.7 0 564.8 0C546 0 527 0 508.2 0C489.3 0 470.7 0 451.8 0C433 0 414 0 395.2 0C376.3 0 357.7 0 338.8 0C320 0 301 0 282.2 0C263.3 0 244.7 0 225.8 0C207 0 188 0 169.2 0C150.3 0 131.7 0 112.8 0C94 0 75 0 56.2 0C37.3 0 18.7 0 9.3 0L0 0Z" fill="#e64c3d"></path><path d="M0 62L9.3 59.8C18.7 57.7 37.3 53.3 56.2 50.5C75 47.7 94 46.3 112.8 47.8C131.7 49.3 150.3 53.7 169.2 59.3C188 65 207 72 225.8 71.3C244.7 70.7 263.3 62.3 282.2 63.5C301 64.7 320 75.3 338.8 73.3C357.7 71.3 376.3 56.7 395.2 55.5C414 54.3 433 66.7 451.8 75.5C470.7 84.3 489.3 89.7 508.2 87.7C527 85.7 546 76.3 564.8 76C583.7 75.7 602.3 84.3 621.2 82.7C640 81 659 69 677.8 62C696.7 55 715.3 53 734.2 56.5C753 60 772 69 790.8 73C809.7 77 828.3 76 847.2 75C866 74 885 73 903.8 65.7C922.7 58.3 941.3 44.7 950.7 37.8L960 31L960 0L950.7 0C941.3 0 922.7 0 903.8 0C885 0 866 0 847.2 0C828.3 0 809.7 0 790.8 0C772 0 753 0 734.2 0C715.3 0 696.7 0 677.8 0C659 0 640 0 621.2 0C602.3 0 583.7 0 564.8 0C546 0 527 0 508.2 0C489.3 0 470.7 0 451.8 0C433 0 414 0 395.2 0C376.3 0 357.7 0 338.8 0C320 0 301 0 282.2 0C263.3 0 244.7 0 225.8 0C207 0 188 0 169.2 0C150.3 0 131.7 0 112.8 0C94 0 75 0 56.2 0C37.3 0 18.7 0 9.3 0L0 0Z" fill="#ee5849"></path><path d="M0 18L9.3 20.2C18.7 22.3 37.3 26.7 56.2 33.8C75 41 94 51 112.8 53.3C131.7 55.7 150.3 50.3 169.2 48C188 45.7 207 46.3 225.8 47.8C244.7 49.3 263.3 51.7 282.2 47C301 42.3 320 30.7 338.8 27.2C357.7 23.7 376.3 28.3 395.2 34.8C414 41.3 433 49.7 451.8 54.3C470.7 59 489.3 60 508.2 55.5C527 51 546 41 564.8 38C583.7 35 602.3 39 621.2 41.5C640 44 659 45 677.8 46.2C696.7 47.3 715.3 48.7 734.2 50.3C753 52 772 54 790.8 48.7C809.7 43.3 828.3 30.7 847.2 26.7C866 22.7 885 27.3 903.8 35.3C922.7 43.3 941.3 54.7 950.7 60.3L960 66L960 0L950.7 0C941.3 0 922.7 0 903.8 0C885 0 866 0 847.2 0C828.3 0 809.7 0 790.8 0C772 0 753 0 734.2 0C715.3 0 696.7 0 677.8 0C659 0 640 0 621.2 0C602.3 0 583.7 0 564.8 0C546 0 527 0 508.2 0C489.3 0 470.7 0 451.8 0C433 0 414 0 395.2 0C376.3 0 357.7 0 338.8 0C320 0 301 0 282.2 0C263.3 0 244.7 0 225.8 0C207 0 188 0 169.2 0C150.3 0 131.7 0 112.8 0C94 0 75 0 56.2 0C37.3 0 18.7 0 9.3 0L0 0Z" fill="#f76455"></path><path d="M0 45L9.3 44.8C18.7 44.7 37.3 44.3 56.2 43.3C75 42.3 94 40.7 112.8 38.3C131.7 36 150.3 33 169.2 27.2C188 21.3 207 12.7 225.8 8.5C244.7 4.3 263.3 4.7 282.2 11.5C301 18.3 320 31.7 338.8 36.7C357.7 41.7 376.3 38.3 395.2 32C414 25.7 433 16.3 451.8 12C470.7 7.7 489.3 8.3 508.2 11.3C527 14.3 546 19.7 564.8 21C583.7 22.3 602.3 19.7 621.2 19.8C640 20 659 23 677.8 22.8C696.7 22.7 715.3 19.3 734.2 22.3C753 25.3 772 34.7 790.8 39C809.7 43.3 828.3 42.7 847.2 37.8C866 33 885 24 903.8 21.2C922.7 18.3 941.3 21.7 950.7 23.3L960 25L960 0L950.7 0C941.3 0 922.7 0 903.8 0C885 0 866 0 847.2 0C828.3 0 809.7 0 790.8 0C772 0 753 0 734.2 0C715.3 0 696.7 0 677.8 0C659 0 640 0 621.2 0C602.3 0 583.7 0 564.8 0C546 0 527 0 508.2 0C489.3 0 470.7 0 451.8 0C433 0 414 0 395.2 0C376.3 0 357.7 0 338.8 0C320 0 301 0 282.2 0C263.3 0 244.7 0 225.8 0C207 0 188 0 169.2 0C150.3 0 131.7 0 112.8 0C94 0 75 0 56.2 0C37.3 0 18.7 0 9.3 0L0 0Z" fill="#ff6f61"></path></svg>